<?xml version="1.0" encoding="utf-8"?>
<!-- Generator: Adobe Illustrator 25.0.1, SVG Export Plug-In . SVG Version: 6.00 Build 0)  -->
<svg version="1.1" id="Capa_1" xmlns="http://www.w3.org/2000/svg" xmlns:xlink="http://www.w3.org/1999/xlink" x="0px" y="0px"
	 viewBox="0 0 223 67.1" style="enable-background:new 0 0 223 67.1;" xml:space="preserve">
<style type="text/css">
	.st0{fill-rule:evenodd;clip-rule:evenodd;fill:#FFFFFF;}
	.st1{fill-rule:evenodd;clip-rule:evenodd;fill:#003C91;}
	.st2{fill:#EA0029;}
</style>
<g>
	
		<image style="overflow:visible;opacity:0.75;" width="1036" height="400" xlink:href="F15643B5.png"  transform="matrix(0.24 0 0 0.24 -6.12 -7.08)">
	</image>
	<g>
		<g>
			<path class="st0" d="M215.7,7.4c0,0-1.1-5-4.5-6c-1-0.3-2-0.4-2.9-0.4c-2.4,0-4.8,0.9-6.3,2.4c-1.7,1.8-12.1,5-40,5
				c-5,0-8.4-0.1-8.6-0.1L68.7,4.8c-2.8-0.1-5.7-0.2-8.4-0.2C45.4,4.6,33,6.2,23.8,9.2c-2.4,0.8-6.9,2.6-11.3,5.9
				c-23.1,17.3-1.5,48.3,0.7,49.8c0.7,0.5,1.5,0.9,1.5,0.9c1.3,0.6,2.6,0.9,4.1,0.9c1.3,0,2.6-0.2,3.8-0.8c5-2.1,18.9-3.3,36.4-3.3
				c3.1,0,5.3,0,5.7,0.1l86.6,3.4c4.1,0.2,8.1,0.3,11.9,0.3c18.8,0,33.1-2.3,42.3-6.7c5.6-2.6,7.8-6.3,10.1-9.1
				C223.1,41,220.7,29.7,215.7,7.4z"/>
		</g>
		<path class="st1" d="M152.9,56.6l-84.7-3.4c-40.1-1.5-49.5,8.1-49.5,8.1c11.8-4.9,46.3-4,46.3-4l86.7,3.4
			c52.6,2.4,56.5-11.3,56.5-11.3C199.6,58.4,152.9,56.6,152.9,56.6L152.9,56.6z"/>
		<path class="st1" d="M65.1,14l25.6,1l45,1.8l16.2,0.7c52.6,2.4,56.5-11.3,56.5-11.3c-8.6,8.9-55.3,7.2-55.3,7.2L142.5,13
			l-58.3-2.4L68.2,10c-40.1-1.5-49.5,8.1-49.5,8.1C30.6,13.2,65.1,14,65.1,14L65.1,14z"/>
		<g>
			<path class="st2" d="M41.8,20.2v28.4H31.5V37.3h-5.6v11.3H15.6V20.2h10.3v10.4h5.6V20.2H41.8z"/>
			<path class="st2" d="M45.2,41.6V26.9c0-5.5,5.5-7.4,13-7.4c7.5,0,13.1,2,13.1,7.4v14.8c0,5.5-5.6,7.4-13.1,7.4
				S45.2,47.1,45.2,41.6z M61.1,40V28.5c0-2.4-0.8-3.2-2.7-3.2s-2.7,0.9-2.7,3.2V40c0,2.4,0.8,3.2,2.7,3.2S61.1,42.4,61.1,40z"/>
			<path class="st2" d="M86.8,39.9h-1.7v8.7H74.8V20.2h13.8c7.5,0,12.1,1.7,12.1,6.7v6.3c0,2.5-1.4,4.2-3.7,5.3l5.3,10.2H91.5
				L86.8,39.9z M85,34.2h2.8c2,0,2.5-0.7,2.5-1.9v-4.5c0-1.2-0.6-1.9-2.5-1.9H85V34.2z"/>
			<path class="st2" d="M121,44.7h-8.1l-1,3.9h-9l7.9-28.4h13.5l7.9,28.4h-10.4L121,44.7z M119.4,38.4l-2.4-9.7l-2.5,9.7H119.4z"/>
			<path class="st2" d="M146.3,39.9h-1.7v8.7h-10.4V20.2H148c7.5,0,12.1,1.7,12.1,6.7v6.3c0,2.5-1.4,4.2-3.7,5.3l5.3,10.2H151
				L146.3,39.9z M144.6,34.2h2.8c2,0,2.5-0.7,2.5-1.9v-4.5c0-1.2-0.6-1.9-2.5-1.9h-2.8V34.2z"/>
			<path class="st2" d="M164.1,20.2h10.3v28.4h-10.3V20.2z"/>
			<path class="st2" d="M177.9,41.6V26.9c0-5.5,5.5-7.4,13-7.4c7.5,0,13.1,2,13.1,7.4v14.8c0,5.5-5.6,7.4-13.1,7.4
				C183.3,49.1,177.9,47.1,177.9,41.6z M193.8,40V28.5c0-2.4-0.8-3.2-2.7-3.2s-2.7,0.9-2.7,3.2V40c0,2.4,0.8,3.2,2.7,3.2
				C192.9,43.2,193.8,42.4,193.8,40z"/>
		</g>
	</g>
</g>
<g>
	<g>
		<g>
			<path class="st0" d="M215.7,7.4c0,0-1.1-5-4.5-6c-1-0.3-2-0.4-2.9-0.4c-2.4,0-4.8,0.9-6.3,2.4c-1.7,1.8-12.1,5-40,5
				c-5,0-8.4-0.1-8.6-0.1L68.7,4.8c-2.8-0.1-5.7-0.2-8.4-0.2C45.4,4.6,33,6.2,23.8,9.2c-2.4,0.8-6.9,2.6-11.3,5.9
				c-23.1,17.3-1.5,48.3,0.7,49.8c0.7,0.5,1.5,0.9,1.5,0.9c1.3,0.6,2.6,0.9,4.1,0.9c1.3,0,2.6-0.2,3.8-0.8c5-2.1,18.9-3.3,36.4-3.3
				c3.1,0,5.3,0,5.7,0.1l86.6,3.4c4.1,0.2,8.1,0.3,11.9,0.3c18.8,0,33.1-2.3,42.3-6.7c5.6-2.6,7.8-6.3,10.1-9.1
				C223.1,41,220.7,29.7,215.7,7.4z"/>
		</g>
	</g>
	<path class="st1" d="M152.9,56.6l-84.7-3.4c-40.1-1.5-49.5,8.1-49.5,8.1c11.8-4.9,46.3-4,46.3-4l86.7,3.4
		c52.6,2.4,56.5-11.3,56.5-11.3C199.6,58.4,152.9,56.6,152.9,56.6L152.9,56.6z"/>
	<path class="st1" d="M65.1,14l25.6,1l45,1.8l16.2,0.7c52.6,2.4,56.5-11.3,56.5-11.3c-8.6,8.9-55.3,7.2-55.3,7.2L142.5,13l-58.3-2.4
		L68.2,10c-40.1-1.5-49.5,8.1-49.5,8.1C30.6,13.2,65.1,14,65.1,14L65.1,14z"/>
	<g>
		<path class="st2" d="M41.8,20.2v28.4H31.5V37.3h-5.6v11.3H15.6V20.2h10.3v10.4h5.6V20.2H41.8z"/>
		<path class="st2" d="M45.2,41.6V26.9c0-5.5,5.5-7.4,13-7.4c7.5,0,13.1,2,13.1,7.4v14.8c0,5.5-5.6,7.4-13.1,7.4
			S45.2,47.1,45.2,41.6z M61.1,40V28.5c0-2.4-0.8-3.2-2.7-3.2s-2.7,0.9-2.7,3.2V40c0,2.4,0.8,3.2,2.7,3.2S61.1,42.4,61.1,40z"/>
		<path class="st2" d="M86.8,39.9h-1.7v8.7H74.8V20.2h13.8c7.5,0,12.1,1.7,12.1,6.7v6.3c0,2.5-1.4,4.2-3.7,5.3l5.3,10.2H91.5
			L86.8,39.9z M85,34.2h2.8c2,0,2.5-0.7,2.5-1.9v-4.5c0-1.2-0.6-1.9-2.5-1.9H85V34.2z"/>
		<path class="st2" d="M121,44.7h-8.1l-1,3.9h-9l7.9-28.4h13.5l7.9,28.4h-10.4L121,44.7z M119.4,38.4l-2.4-9.7l-2.5,9.7H119.4z"/>
		<path class="st2" d="M146.3,39.9h-1.7v8.7h-10.4V20.2H148c7.5,0,12.1,1.7,12.1,6.7v6.3c0,2.5-1.4,4.2-3.7,5.3l5.3,10.2H151
			L146.3,39.9z M144.6,34.2h2.8c2,0,2.5-0.7,2.5-1.9v-4.5c0-1.2-0.6-1.9-2.5-1.9h-2.8V34.2z"/>
		<path class="st2" d="M164.1,20.2h10.3v28.4h-10.3V20.2z"/>
		<path class="st2" d="M177.9,41.6V26.9c0-5.5,5.5-7.4,13-7.4c7.5,0,13.1,2,13.1,7.4v14.8c0,5.5-5.6,7.4-13.1,7.4
			C183.3,49.1,177.9,47.1,177.9,41.6z M193.8,40V28.5c0-2.4-0.8-3.2-2.7-3.2s-2.7,0.9-2.7,3.2V40c0,2.4,0.8,3.2,2.7,3.2
			C192.9,43.2,193.8,42.4,193.8,40z"/>
	</g>
</g>
</svg>
